<?xml version="1.0" encoding="UTF-8"?> <svg xmlns="http://www.w3.org/2000/svg" fill-rule="evenodd" viewBox="0 0 100 100"><path d="M49.999 4.604c-14.277 0-25.892 11.616-25.892 25.894a1.5 1.5 0 1 0 3 0c0-12.624 10.27-22.894 22.892-22.894 12.59 0 22.839 10.213 22.896 22.79-.255 1.784-3.578 25.044-4.666 30.045-.32 1.479-.744 3.666-1.234 6.198-.729 3.767-1.638 8.455-2.512 12.341-1.452 6.462-6.604 13.416-14.485 13.416-10.713 0-15.18-7.248-15.8-14.128-.769-4.925-1.047-11.109-.153-12.515.631-.999 2.571-1.971 4.325-2.165 1.105-.124 1.768.099 1.996.326.65.651.94 2.872 1.174 4.656.381 2.915.776 5.929 2.827 7.113 1.169.68 2.772.435 3.911.112 1.542-.439 3.445-1.384 4.158-2.722 1.04-1.954-.137-4.513-1.275-6.986-.592-1.289-1.33-2.892-1.294-3.648.062-1.374 2.493-3.807 4.446-5.761 2.93-2.932 5.696-5.7 5.391-8.51-.497-4.478-8.911-10.949-14.52-11.169-3.141-.137-3.971 2.768-4.575 4.885-.632 2.21-1.053 3.261-2.188 3.342-.164.009-.433.03-.797-.496-2.014-2.904-1.221-13.093.817-17.549 2.688-5.89 6.603-8.876 11.542-8.774 8.543.117 12.243 11.087 12.278 11.196a1.5 1.5 0 0 0 2.854-.929c-.175-.536-4.393-13.121-15.091-13.268-4.312-.059-10.293 1.721-14.312 10.527-2.265 4.953-3.438 16.348-.553 20.506.863 1.245 2.095 1.877 3.475 1.778 3.354-.239 4.224-3.286 4.859-5.51.63-2.206.963-2.762 1.57-2.711 4.329.17 11.35 5.72 11.658 8.5.15 1.378-2.555 4.085-4.53 6.062-2.677 2.68-5.206 5.21-5.321 7.743-.07 1.484.725 3.212 1.566 5.041.592 1.286 1.694 3.682 1.354 4.319-.429.724-3.189 1.716-3.918 1.427-.773-.446-1.124-3.131-1.356-4.906-.338-2.579-.657-5.015-2.025-6.387-.974-.977-2.553-1.398-4.451-1.189-2.223.247-5.215 1.462-6.529 3.542-1.95 3.069-.572 12.687-.288 14.485 1.109 12.373 10.808 16.763 18.776 16.763 8.167 0 15.327-6.479 17.413-15.758.884-3.93 1.796-8.642 2.529-12.429.486-2.515.907-4.687 1.221-6.132 1.148-5.28 4.574-29.345 4.72-30.367.01-.07.015-.14.015-.211C75.895 16.22 64.278 4.604 49.999 4.604z"></path></svg> 